/* XPM */
static char *result[] = {
/* columns rows colors chars-per-pixel */
"64 64 164 2 ",
"   c #466934",
".  c #476A34",
"X  c #466C37",
"o  c #486A35",
"O  c #486E36",
"+  c #496F37",
"@  c #4B6F37",
"#  c #4C6F37",
"$  c #4F6E37",
"%  c #4A7038",
"&  c #4B7138",
"*  c #4E7038",
"=  c #4C7238",
"-  c #4C7239",
";  c #4D7239",
":  c #4E733A",
">  c #4E743A",
",  c #4F743A",
"<  c #4F753B",
"1  c #527339",
"2  c #537339",
"3  c #547239",
"4  c #50753A",
"5  c #53743A",
"6  c #52753A",
"7  c #50773B",
"8  c #51773B",
"9  c #52763B",
"0  c #55763B",
"q  c #54773B",
"w  c #56763B",
"e  c #57773B",
"r  c #56773C",
"t  c #50783B",
"y  c #51783B",
"u  c #52783C",
"i  c #52793C",
"p  c #53793C",
"a  c #537A3C",
"s  c #54783C",
"d  c #55783C",
"f  c #55793C",
"g  c #55793D",
"h  c #57793C",
"j  c #547A3C",
"k  c #557A3C",
"l  c #547B3C",
"z  c #557B3C",
"x  c #547A3D",
"c  c #557A3D",
"v  c #547B3D",
"b  c #557B3D",
"n  c #567A3C",
"m  c #567A3D",
"M  c #567B3D",
"N  c #547A3E",
"B  c #567B3E",
"V  c #547C3D",
"C  c #557C3D",
"Z  c #567C3D",
"A  c #577D3D",
"S  c #557C3E",
"D  c #567C3E",
"F  c #577C3E",
"G  c #567D3E",
"H  c #577D3E",
"J  c #577D3F",
"K  c #577E3E",
"L  c #577E3F",
"P  c #58783C",
"I  c #587B3D",
"U  c #587C3E",
"Y  c #587D3E",
"T  c #597D3E",
"R  c #587D3F",
"E  c #5A7D3E",
"W  c #587E3E",
"Q  c #587E3F",
"!  c #597E3F",
"~  c #597F3F",
"^  c #5C7F3F",
"/  c #59803F",
"(  c #5A803E",
")  c #5A803F",
"_  c #5A813F",
"`  c #5C803F",
"'  c #598040",
"]  c #5A8040",
"[  c #5B8040",
"{  c #5A8140",
"}  c #5B8140",
"|  c #5A8141",
" . c #5B8141",
".. c #5B8240",
"X. c #5C8140",
"o. c #5D8140",
"O. c #5C8141",
"+. c #5C8240",
"@. c #5C8340",
"#. c #5D8340",
"$. c #5C8241",
"%. c #5D8241",
"&. c #5C8341",
"*. c #5D8341",
"=. c #5F8240",
"-. c #5E8241",
";. c #5E8341",
":. c #5F8341",
">. c #5D8342",
",. c #5E8342",
"<. c #5D8441",
"1. c #5E8441",
"2. c #5F8441",
"3. c #5E8541",
"4. c #5E8442",
"5. c #5F8442",
"6. c #5E8542",
"7. c #5F8542",
"8. c #5F8543",
"9. c #5F8642",
"0. c #5F8643",
"q. c #608543",
"w. c #608642",
"e. c #618642",
"r. c #608643",
"t. c #618643",
"y. c #608743",
"u. c #618743",
"i. c #628743",
"p. c #618744",
"a. c #628744",
"s. c #628843",
"d. c #618844",
"f. c #628844",
"g. c #638844",
"h. c #628944",
"j. c #638944",
"k. c #628945",
"l. c #638945",
"z. c #648944",
"x. c #648945",
"c. c #658945",
"v. c #648A45",
"b. c #658A45",
"n. c #658B45",
"m. c #648A46",
"M. c #658B46",
"N. c #668B46",
"B. c #658C45",
"V. c #668C46",
"C. c #678C46",
"Z. c #678D47",
"A. c #668E46",
"S. c #678E47",
"D. c #688E47",
"F. c #698F47",
"G. c #6A8E47",
"H. c #6A8F47",
"J. c #698F48",
"K. c #6C8F48",
"L. c #6A9048",
"P. c #6B9048",
"I. c #6D9149",
"U. c #6E9249",
/* pixels */
"K.L.) Z S >.7.1.Z.m.8.V.@.~ ..v.K.L.) Z S >.7.1.Z.m.8.V.4.~ ..v.K.L.) Z S >.7.1.Z.m.8.V.@.~ ..v.K.L.) Z S >.7.1.Z.m.8.V.4.~ ..v.",
"p 0.+.1.*.q.Z f ..t } L x.r.X { p 0.+.1.*.q.Z f ..t } J b.q.X { p 0.+.1.*.q.Z f ..t } L x.r.X { p 0.+.1.*.q.Z f ..t } J b.q.X { ",
"v./ a.y.{ % 5 1 9 i   o X.b +.*.v./ a.y.{ % 5 1 9 i   o %.b +.*.v./ a.y.{ % 5 1 9 i   o X.b +.*.v./ a.y.{ % 5 1 9 i   o %.b +.*.",
"f.$.w.8./ n.' ~ D.~ e.F.O.Q L.7.f.$.w.8./ n.' ~ D.~ e.H.$.L J.7.f.$.w.8./ n.' ~ D.~ e.F.O.Q L.7.f.$.w.8./ n.' ~ D.~ e.H.$.L J.7.",
"4 T d 8 3 P A.I.p.1.p b 5.Y  .a 4 T d 8 3 P A.I.p.1.p D q.H  .a 4 T d 8 3 P A.I.p.1.p b 5.Y  .a 4 T d 8 3 P A.I.p.1.p D q.H  .a ",
"&.* h.#.e ' L p.B.4.p < ] Y a.C &.* h.#.e ' L p.B.4.p < O.A p.C &.* h.#.e ' L p.B.4.p < ] Y a.C &.* h.#.e ' L p.B.4.p < O.A p.C ",
"l.U.G.6.A S.v.$ s { F.u.x F 7.d.l.U.G.6.A S.v.$ s { F.u.x H 7.d.l.U.G.6.A S.v.$ s { F.u.x F 7.d.l.U.G.6.A S.v.$ s { F.u.x H 7.d.",
"u.H N f ] V # 6 1 h | @ %.N.S.s.u.H N f ] V # 6 1 h | @ X.C.S.s.u.H N f ] V # 6 1 h | @ %.N.S.s.u.H N f ] V # 6 1 h | @ X.C.S.s.",
"7 f -.n . ] s.U c.E , =.) H g.1.7 f -.n . ] s.U c.E , =.) Y g.1.7 f -.n . ] s.U c.E , =.) H g.1.7 f -.n . ] s.U c.E , =.) Y g.1.",
"2.7.u.Q 0.y.H s.k.V.f.Z.b.u.1.G 2.7.u.Q 0.y.H s.k.V.f.Z.v.p.<.G 2.7.u.Q 0.y.H s.k.V.f.Z.b.u.1.G 2.7.u.Q 0.y.H s.k.V.f.Z.v.p.<.G ",
"4.D > Y r I ~ 9.] ; ..] W u.a $.4.D > Y r I ~ 9.] ; ..) A g.p $.4.D > Y r I ~ 9.] ; ..] W u.a $.4.D > Y r I ~ 9.] ; ..) A g.p } ",
"7.m W ! $.J u Q c ) 9.W u.;.C +.7.m W ! $.J u Q c ) 9.W f.;.b +.7.m W ! $.J u Q c ) 9.W u.;.C +.7.m W ! $.J u Q c ) 9.W f.;.b ..",
"b p y.M._ *.8.i.F z.j v $.+ ` g b p y.M._ *.8.i.F z.j v *.O ^ g b p y.M._ *.8.i.F z.j v $.+ ` g b p y.M._ *.8.i.F z.j v *.O ^ g ",
"g.Z.K.b.z.C.i.P.*.Y p } M 9.b.1.g.Z.K.b.z.C.i.P.*.Y p } M r.b.1.g.Z.K.b.z.C.i.P.*.Y p } M 9.b.1.g.Z.K.b.z.C.i.P.*.Y p } M r.b.1.",
"d f ( 3.2.X.b K H : H j.[ d.G ) d f ( 3.2.X.b K H : H j.{ k.G ) d f ( 3.2.X.b K H : H j.[ d.G ) d f ( 3.2.X.b K H : H j.{ k.G ) ",
"0 ! Q ..y = q z.2 o.j.l +.b R k 0 ! Q ..y = q z.2 o.j.z *.b H k 0 ! Q ..y = q z.2 o.j.l +.b R k 0 ! Q ..y = q z.2 o.j.z *.b H k ",
"K.L.) Z S >.7.1.Z.m.8.V.@.~ ..v.K.L.) Z S >.7.1.Z.m.8.V.4.~ ..v.K.L.) Z S >.7.1.Z.m.8.V.@.~ ..v.K.L.) Z S >.7.1.Z.m.8.V.4.~ ..v.",
"p 0.+.1.*.q.Z f ..t } L x.r.X { p 0.+.1.*.q.Z f ..t } J b.q.X { p 0.+.1.*.q.Z f ..t } L x.r.X { p 0.+.1.*.q.Z f ..t } J b.q.X { ",
"v./ a.y.{ % 5 1 9 i   o X.b +.*.v./ a.y.{ % 5 1 9 i   o %.b +.*.v./ a.y.{ % 5 1 9 i   o X.b +.*.v./ a.y.{ % 5 1 9 i   o %.b +.*.",
"f.$.w.8./ n.' ~ D.~ e.F.O.Q L.7.f.$.w.8./ n.' ~ D.~ e.H.$.L J.7.f.$.w.8./ n.' ~ D.~ e.F.O.Q L.7.f.$.w.8./ n.' ~ D.~ e.H.$.L J.7.",
"4 T d 8 3 P A.I.p.1.p b 5.Y  .a 4 T d 8 3 P A.I.p.1.p D q.H  .a 4 T d 8 3 P A.I.p.1.p b 5.Y  .a 4 T d 8 3 P A.I.p.1.p D q.H  .a ",
"&.* h.#.e ' L p.B.4.p < ] Y a.C &.* h.#.e ' L p.B.4.p < O.A p.C &.* h.#.e ' L p.B.4.p < ] Y a.C &.* h.#.e ' L p.B.4.p < O.A p.C ",
"l.U.G.6.A S.v.$ s { F.u.x F 7.d.l.U.G.6.A S.v.$ s { F.u.x H 7.d.l.U.G.6.A S.v.$ s { F.u.x F 7.d.l.U.G.6.A S.v.$ s { F.u.x H 7.d.",
"u.H N f ] V # 6 1 h | @ %.N.S.s.u.H N f ] V # 6 1 h | @ X.C.S.s.u.H N f ] V # 6 1 h | @ %.N.S.s.u.H N f ] V # 6 1 h | @ X.C.S.s.",
"7 f -.n . ] s.U c.E , =.) H g.1.7 f -.n . ] s.U c.E , =.) Y g.1.7 f -.n . ] s.U c.E , =.) H g.1.7 f -.n . ] s.U c.E , =.) Y g.1.",
":.7.t.Q 0.y.K s.k.V.f.Z.v.u.1.G :.7.t.Q 0.y.K s.k.V.f.Z.v.p.<.G :.7.t.Q 0.y.K s.k.V.f.Z.v.u.1.G :.7.t.Q 0.y.K s.k.V.f.Z.v.p.<.G ",
"*.c - B w I / 9.] & _ / A f.p } *.c - B w I / 9.] & _ / A g.p } *.c - B w I / 9.] & _ / A f.p } *.c - B w I / 9.] & _ / A g.p } ",
"7.m W ! $.J u Q c ) 9.W u.,.C ..7.m W ! $.J u Q c ) 9.W f.;.b ..7.m W ! $.J u Q c ) 9.W u.,.C ..7.m W ! $.J u Q c ) 9.W f.;.b ..",
"b p y.M._ *.8.i.F z.j v $.+ ` g b p y.M._ *.8.i.F z.j v *.O ^ g b p y.M._ *.8.i.F z.j v $.+ ` g b p y.M._ *.8.i.F z.j v *.O ^ g ",
"g.Z.K.b.z.C.i.P.*.Y p } M 9.b.1.g.Z.K.b.z.C.i.P.*.Y p } M r.b.1.g.Z.K.b.z.C.i.P.*.Y p } M 9.b.1.g.Z.K.b.z.C.i.P.*.Y p } M r.b.1.",
"d f ( 3.2.X.b K H : H j.[ d.G ) d f ( 3.2.X.b K H : H j.{ k.G ) d f ( 3.2.X.b K H : H j.[ d.G ) d f ( 3.2.X.b K H : H j.{ k.G ) ",
"0 ! Q ..y = q z.2 o.j.l +.b R k 0 ! Q ..y = q z.2 o.j.z *.b H k 0 ! Q ..y = q z.2 o.j.l +.b R k 0 ! Q ..y = q z.2 o.j.z *.b H k ",
"K.L.) Z S >.7.1.Z.m.8.V.@.~ ..v.K.L.) Z S >.7.1.Z.m.8.V.4.~ ..v.K.L.) Z S >.7.1.Z.m.8.V.@.~ ..v.K.L.) Z S >.7.1.Z.m.8.V.4.~ ..v.",
"p 0.+.1.*.q.Z f ..t } L x.r.X { p 0.+.1.*.q.Z f ..t } J b.q.X { p 0.+.1.*.q.Z f ..t } L x.r.X { p 0.+.1.*.q.Z f ..t } J b.q.X { ",
"v./ a.y.{ % 5 1 9 i   o X.b +.*.v./ a.y.{ % 5 1 9 i   o %.b +.*.v./ a.y.{ % 5 1 9 i   o X.b +.*.v./ a.y.{ % 5 1 9 i   o %.b +.*.",
"f.$.w.8./ n.' ~ D.~ e.F.O.Q L.7.f.$.w.8./ n.' ~ D.~ e.H.$.L J.7.f.$.w.8./ n.' ~ D.~ e.F.O.Q L.7.f.$.w.8./ n.' ~ D.~ e.H.$.L J.7.",
"4 T d 8 3 P A.I.p.1.p b 5.Y  .a 4 T d 8 3 P A.I.p.1.p D q.H  .a 4 T d 8 3 P A.I.p.1.p b 5.Y  .a 4 T d 8 3 P A.I.p.1.p D q.H  .a ",
"&.* h.#.e ' L p.B.4.p < ] Y a.C &.* h.#.e ' L p.B.4.p < O.A p.C &.* h.#.e ' L p.B.4.p < ] Y a.C &.* h.#.e ' L p.B.4.p < O.A p.C ",
"l.U.G.6.A S.v.$ s { F.u.x F 7.d.l.U.G.6.A S.v.$ s { F.u.x H 7.d.l.U.G.6.A S.v.$ s { F.u.x F 7.d.l.U.G.6.A S.v.$ s { F.u.x H 7.d.",
"u.H N f ] V # 6 1 h | @ %.N.S.s.u.H N f ] V # 6 1 h | @ X.C.S.s.u.H N f ] V # 6 1 h | @ %.N.S.s.u.H N f ] V # 6 1 h | @ X.C.S.s.",
"7 f -.n . ] s.U c.E , =.) H g.1.7 f -.n . ] s.U c.E , =.) Y g.1.7 f -.n . ] s.U c.E , =.) H g.1.7 f -.n . ] s.U c.E , =.) Y g.1.",
"2.7.u.Q 0.y.H s.k.V.f.Z.b.u.1.G 2.7.u.Q 0.y.H s.k.V.f.Z.v.p.<.G 2.7.u.Q 0.y.H s.k.V.f.Z.b.u.1.G 2.7.u.Q 0.y.H s.k.V.f.Z.v.p.<.G ",
"4.D > Y r I ~ 9.] ; ..] W u.a $.4.D > Y r I ~ 9.] ; ..) A g.p $.4.D > Y r I ~ 9.] ; ..] W u.a $.4.D > Y r I ~ 9.] ; ..) A g.p } ",
"7.m W ! $.J u Q c ) 9.W u.;.C +.7.m W ! $.J u Q c ) 9.W f.;.b +.7.m W ! $.J u Q c ) 9.W u.;.C +.7.m W ! $.J u Q c ) 9.W f.;.b ..",
"b p y.M._ *.8.i.F z.j v $.+ ` g b p y.M._ *.8.i.F z.j v *.O ^ g b p y.M._ *.8.i.F z.j v $.+ ` g b p y.M._ *.8.i.F z.j v *.O ^ g ",
"g.Z.K.b.z.C.i.P.*.Y p } M 9.b.1.g.Z.K.b.z.C.i.P.*.Y p } M r.b.1.g.Z.K.b.z.C.i.P.*.Y p } M 9.b.1.g.Z.K.b.z.C.i.P.*.Y p } M r.b.1.",
"d f ( 3.2.X.b K H : H j.[ d.G ) d f ( 3.2.X.b K H : H j.{ k.G ) d f ( 3.2.X.b K H : H j.[ d.G ) d f ( 3.2.X.b K H : H j.{ k.G ) ",
"0 ! Q ..y = q z.2 o.j.l +.b R k 0 ! Q ..y = q z.2 o.j.z *.b H k 0 ! Q ..y = q z.2 o.j.l +.b R k 0 ! Q ..y = q z.2 o.j.z *.b H k ",
"K.L.) Z S >.7.1.Z.m.8.V.@.~ ..v.K.L.) Z S >.7.1.Z.m.8.V.4.~ ..v.K.L.) Z S >.7.1.Z.m.8.V.@.~ ..v.K.L.) Z S >.7.1.Z.m.8.V.4.~ ..v.",
"p 0.+.1.*.q.Z f ..t } L x.r.X { p 0.+.1.*.q.Z f ..t } J b.q.X { p 0.+.1.*.q.Z f ..t } L x.r.X { p 0.+.1.*.q.Z f ..t } J b.q.X { ",
"v./ a.y.{ % 5 1 9 i   o X.b +.*.v./ a.y.{ % 5 1 9 i   o %.b +.*.v./ a.y.{ % 5 1 9 i   o X.b +.*.v./ a.y.{ % 5 1 9 i   o %.b +.*.",
"f.$.w.8./ n.' ~ D.~ e.F.O.Q L.7.f.$.w.8./ n.' ~ D.~ e.H.$.L J.7.f.$.w.8./ n.' ~ D.~ e.F.O.Q L.7.f.$.w.8./ n.' ~ D.~ e.H.$.L J.7.",
"4 T d 8 3 P A.I.p.1.p b 5.Y  .a 4 T d 8 3 P A.I.p.1.p D q.H  .a 4 T d 8 3 P A.I.p.1.p b 5.Y  .a 4 T d 8 3 P A.I.p.1.p D q.H  .a ",
"&.* h.#.e ' L p.B.4.p < ] Y a.C &.* h.#.e ' L p.B.4.p < O.A p.C &.* h.#.e ' L p.B.4.p < ] Y a.C &.* h.#.e ' L p.B.4.p < O.A p.C ",
"l.U.G.6.A S.v.$ s { F.u.x F 7.d.l.U.G.6.A S.v.$ s { F.u.x H 7.d.l.U.G.6.A S.v.$ s { F.u.x F 7.d.l.U.G.6.A S.v.$ s { F.u.x H 7.d.",
"u.H N f ] V # 6 1 h | @ %.N.S.s.u.H N f ] V # 6 1 h | @ X.C.S.s.u.H N f ] V # 6 1 h | @ %.N.S.s.u.H N f ] V # 6 1 h | @ X.C.S.s.",
"7 f -.n . ] s.U c.E , =.) H g.1.7 f -.n . ] s.U c.E , =.) Y g.1.7 f -.n . ] s.U c.E , =.) H g.1.7 f -.n . ] s.U c.E , =.) Y g.1.",
":.7.t.Q 0.y.K s.k.V.f.Z.v.u.1.G :.7.t.Q 0.y.K s.k.V.f.Z.v.p.<.G :.7.t.Q 0.y.K s.k.V.f.Z.v.u.1.G :.7.t.Q 0.y.K s.k.V.f.Z.v.p.<.G ",
"*.c - B w I / 9.] & _ / A f.p } *.c - B w I / 9.] & _ / A g.p } *.c - B w I / 9.] & _ / A f.p } *.c - B w I / 9.] & _ / A g.p } ",
"7.m W ! $.J u Q c ) 9.W u.,.C ..7.m W ! $.J u Q c ) 9.W f.;.b ..7.m W ! $.J u Q c ) 9.W u.,.C ..7.m W ! $.J u Q c ) 9.W f.;.b ..",
"b p y.M._ *.8.i.F z.j v $.+ ` g b p y.M._ *.8.i.F z.j v *.O ^ g b p y.M._ *.8.i.F z.j v $.+ ` g b p y.M._ *.8.i.F z.j v *.O ^ g ",
"g.Z.K.b.z.C.i.P.*.Y p } M 9.b.1.g.Z.K.b.z.C.i.P.*.Y p } M r.b.1.g.Z.K.b.z.C.i.P.*.Y p } M 9.b.1.g.Z.K.b.z.C.i.P.*.Y p } M r.b.1.",
"d f ( 3.2.X.b K H : H j.[ d.G ) d f ( 3.2.X.b K H : H j.{ k.G ) d f ( 3.2.X.b K H : H j.[ d.G ) d f ( 3.2.X.b K H : H j.{ k.G ) ",
"0 ! Q ..y = q z.2 o.j.l +.b R k 0 ! D } 7 = q z.2 o.j.z *.b H k 0 ! Q ..y = q z.2 o.j.l +.b R k 0 ! D } 7 = q z.2 o.j.z *.b H k "
};
