/* XPM */
static char *result[] = {
/* columns rows colors chars-per-pixel */
"63 64 6 1 ",
"  c #141B1B",
". c #61372E",
"X c #965340",
"o c #A3754E",
"O c #EECF9B",
"+ c None",
/* pixels */
"++++++++++ ooXXX.oXooXX.oo.X.ooXo.X.oo.X.XXXXXXXXoo +++++++++++",
"+++++++++ oo....ooXoXX..oo.X.XXXX.X.oo...XXXX.....oo ++++++++++",
"++++++++ ooX.X.oooXXX.X.oo.X.oooo.X.oo.XXXXXX.XXX.Xoo +++++++++",
"+++++++ ooXX..ooooXX.XX.oo.X.oooo.X.oo.XXXXXX.XXX.XXoo ++++++++",
"++++++ ooXXX.ooooXX.XXX.oo.X.oooo.X.oo.XXXXXX.XXX.XXXoo +++++++",
"+++++ ooXXX.ooooXX.XXXX.oo...oooo...oo.XXXXXX.XXX.XXXXoo ++++++",
"++++ ooXXX.ooooXX.XXXX.XooXoXooooXoXooX.XXXXX.XXX.XXXXXoo +++++",
"+++ ooXXX.ooooXX.XXXX.oXooXoXooooXoXooXo.XXXX.XXX.XXXXXXoo ++++",
"++ ooXXX.ooooXXX.XXX.ooXooXoXooooXoXooXo.XXXX.XXX.XXXXXX.oo +++",
"++ oX.X.ooooXXXX.XX.oooXooXoXooooXoXooXo.XXXX.ooo.XXXXXX.Xo +++",
"++ Xo..ooooXXXXX.X.ooooXooXoXooooXoXooXo.X..X.ooo.XXXXXX.oX +++",
"++ oo.ooooXX.ooo..ooooXXoo...oooo...ooXX.X.o..ooo.XXXXXX.oo +++",
"++ oXooooXX..ooo.ooooXX.oo.X.oooo.X.oo.X.X.oo.Xoo.XXXXXX.oo +++",
"++ XooooXX.X.oo.ooooXX..oo.X.oooo.X.oo...X.oooXXo.XXXXXX.oo +++",
"+ oooooXX.XX.o.ooooXX.X.oo.X.XXXX.X.oo.XXX.ooooXX.XXXXXX.oo +++",
" oooooXX.XXX..ooooXX.XX.oo.X.oXoo.X.oo.XXX.oooooX.XXXXXX.oo +++",
" ooooXX......ooooXX.XXX.oo.X.oXoo.X.oo.X...oooooo........oo +++",
" oooXX.XXXX.ooooXX.XXXX.oo.X.oXoo.X.oo.XXXX.oooooo.XXXXX.oo +++",
" ooXX.XXXX.ooooXX.XXXXX.oo...oooo...oo.XXXXX.oooooo.XXXX.oo +++",
" oXXo.XXX.ooooXX.XXXXX.XooXoXooooXoXooX.XXXXX.oooooo.XXX.oo +++",
" X oo.XXXooooXXX.XXXX.oXooXoXooooXoXooXo.XXXX.Xooooo.XXX.XX +++",
"+  oo.X.XoooXXXX.XXX.ooXooXoXooooXoXooXoo.XXX.XXoooo.XXX.oo +++",
"++ oo..oXooXXXXX.XX.oooXooXoXooooXoXooXooo.XX.XXX.oo.XXX.oo +++",
"++ oo.ooXoXX.ooo.X.ooooXooXoXooooXoXooXoooo.X.ooo..o.XXX.oo +++",
"++ oXoooXXX..ooo..ooooXXoo...oooo...ooXXoooo..ooo.X..XX..oo +++",
"++ XooooXX.X.ooo.ooooXX.oo.X.oooo.X.oo.XXoooo.Xoo.XXXXXX.oo +++",
"+ oooooXX.XX.oo.ooooXX..oo.X.oooo.X.oo..XXooooXXo.XXXX...oo +++",
" oooooXX.XXX.o.ooooXX.X.oo.X.oooo.X.oo.X.XXooooXX.XXXXXX.oo +++",
"ooXooXX.......ooooXX....oo...oooo...oo....XXooooX........oo +++",
"oXooXX.XXXXX.ooooXX.XXX.oo.X.oooo.X.oo.XXX.XXoooo.XXXXXX.oo +++",
"XooXX.XXXXX.ooooXX.XXXX.oo.X.XXXX.X.oo...XX.XXoooo.XXXXX.oo +++",
" oXXo.XXXX.ooooXX.XXXXX.oX..XXXXXX..Xo.XXXXX.XXoooo.XXXX.oo +++",
" X oo.XXX.ooooXX.XXXXXX.XXoooooooooXXX..XXXXX.XXoooo.XXX.oo +++",
"+  oo.XX.ooooXXX.XXXXXX.XooooooooooXXX.XXXXXX.XXXoooo.XX.oo +++",
"++ oo.X.XoooXXXX.XXXXXX.oooXXXXXXXXXXX.XXXXXX.XXXXoooo.X.oo +++",
"++ oo..oXooXXXXX.XXXXX.oooXooooooooXXXo.XXXXX.XXXXXoooo..oo +++",
"++ oo.ooXoXX.ooo.XXXX.ooXXXXXXXXXXXXXXoo.XXXX.ooo.XXoooo.oo +++",
"++ oXoooXXX..ooo.XXX.oooXooooooooooooXooX.XXX.ooo..XXooooXo +++",
"++ XooooXX.X.ooo.XXX.oooXoOOOOooOOOOoXooXo.XX.ooo.X.XXooooX +++",
"+ oooooXX.XX.ooo.XX.XoooXoOOOOooOOOOoXooXoo.X.ooo.XX.XXooooo ++",
" oooooXX.XXX.ooo...XXXooXoOooOooOooOoXooXooo..ooo.XXX.XXooXoo +",
" ooooXX......ooX.oXXXXooXoOOOOooOOOOoXooXoooo.Xoo......XXooXo +",
" oooXX.XXXXX.oXXooXXoXooXoOooOooOooOoXooXoooooXXo.XXXXX.XXooX +",
" ooXX.XX.X...XXoooXooXooXoOOOOooOOOOoXooXooooooXX.XXXXXX.XXoo +",
" oXXo.XXXXXX.XoooooooXooXooooooooooooXooXoooooooX.XXXXXX.oXXo +",
" X oo.XXXXX.ooo...XXXXXXXXXXXXXXoooooXooXoooooooo.XXXXXX.oo X +",
"+  oo.XXXXXooo.oooooooooooooooooXooooXXXXXXXXXXXX..XXXXX.oo  ++",
"++ oo.XXXXooo.oooooooooooooooooooXXXXXXXooooXXoXXX..XXXX.oo +++",
"++ oo.XXXooXX.ooo.............oooXoooXXoOOOOoXooXXX..XXX.oo +++",
"++ oo.XXooXXX.oo.             .ooXXXXXXoOooOoXXXXXXX..XX.oo +++",
"++ oo.X.oXXXX.oo.             .ooXooooXoOOOOoXooooXXXo.X.oo +++",
"++    ..oXXoX.oo.             .ooXooooXoOooOoXXoXXXXXoo..oo +++",
"++ oooo.oXooX.oo.             .ooXooooXoOOOOoXooooooXooo.oo +++",
"++ oooo.oXXXX.oo.             .oo.XXXXXoOOOOoXXXXXXXXooo.oo +++",
"++ .....oooooXoo.             .oo.ooooXoOOOOoXoooooooo.oooo +++",
"++ oooo.......oo.             .oo......oOooOo..........oooo +++",
"++ oooo.XoXoXXoo.             .oo.XoXo.oOOOOo.oooooXoX.oXoo +++",
"++ oooo.XoXoXXoo.             .oo.XoXo.oooooo.oooooXoX.oooo +++",
"++ oooo.XoXoXXoo.             .oo.XoXoX......XoooooXoX.oooo +++",
"++ oooo.XoXoXXoo.             .oo.XoXoXXXXXXXXoooooXoX.oooo +++",
"++ ooXo.XoXoXXoo.             .oo.XoXooXXXXXXooooooXoX.oooo +++",
"++ ooXo.XoXoXXoo. XXXXXXXXXXX .oo.XoXooooooooooooooXoX.oXoo +++",
"++ ooXo.......oo.XXXXXXXXXXXXX.oo......................oXoX +++",
"++ .....XXXXXX..+++++++++++++++...XXXXXXXXXXXXXXXXXXXX..... +++"
};
