/* XPM */
static char *result[] = {
/* columns rows colors chars-per-pixel */
"64 64 251 2 ",
"   c #FFFF65792A09",
".  c #FFFF661B2A54",
"X  c #FFFF668A2B10",
"o  c #FFFF67762B2A",
"O  c #FFFF66E42C56",
"+  c #FFFF67912C13",
"@  c #FFFF67A52CDE",
"#  c #FFFF67FC2B45",
"$  c #FFFF68842C1D",
"%  c #FFFF69612C38",
"&  c #FFFF68612CF6",
"*  c #FFFF69362CFC",
"=  c #FFFF6A152CA1",
"-  c #FFFF6A6A2D20",
";  c #FFFF6B152D58",
":  c #FFFF7EE02B44",
">  c #FFFF790E2D68",
",  c #FFFF6A6D32A5",
"<  c #FFFF6B8B3386",
"1  c #FFFF6B6633F1",
"2  c #FFFF6B6434B9",
"3  c #FFFF6C503446",
"4  c #FFFF6D1A357D",
"5  c #FFFF6CF13621",
"6  c #FFFF6D793707",
"7  c #FFFF6E61369E",
"8  c #FFFF6E4D3716",
"9  c #FFFF6F283782",
"0  c #FFFF69E03957",
"q  c #FFFF6AE73AD9",
"w  c #FFFF6B253B6E",
"e  c #FFFF6DF13890",
"r  c #FFFF6F6E37BB",
"t  c #FFFF6FB338E1",
"y  c #FFFF6FA53A36",
"u  c #FFFF6C353CFD",
"i  c #FFFF71363A84",
"p  c #FFFF71793BB3",
"a  c #FFFF70CB3CE5",
"s  c #FFFF725B3C52",
"d  c #FFFF70443DDA",
"f  c #FFFF71013E23",
"g  c #FFFF713A3F62",
"h  c #FFFF72553E42",
"j  c #FFFF73223F60",
"k  c #FFFF740C3F0C",
"l  c #FFFF728B40A9",
"z  c #FFFF738141A5",
"x  c #FFFF72A64213",
"c  c #FFFF734E4207",
"v  c #FFFF752B4135",
"b  c #FFFF74244272",
"n  c #FFFF759F424A",
"m  c #FFFF74FF437F",
"M  c #FFFF75FC4216",
"N  c #FFFF73EF458A",
"B  c #FFFF74804458",
"V  c #FFFF751443E9",
"C  c #FFFF74804545",
"Z  c #FFFF75BA44E1",
"A  c #FFFF76924579",
"S  c #FFFF76D845DE",
"D  c #FFFF7783464F",
"F  c #FFFF767C472D",
"G  c #FFFF7735475D",
"H  c #FFFF7849475F",
"J  c #FFFF777248A5",
"K  c #FFFF77084955",
"L  c #FFFF78904971",
"P  c #FFFF795A491C",
"I  c #FFFF78614A5B",
"U  c #FFFF79CA4A76",
"Y  c #FFFF781C4BA3",
"T  c #FFFF79BB4AF5",
"R  c #FFFF7A974A8D",
"E  c #FFFF7AAB4B08",
"W  c #FFFF79B94D08",
"Q  c #FFFF7A334C9E",
"!  c #FFFF7B854C8C",
"~  c #FFFF7A164DAC",
"^  c #FFFF79C14DD1",
"/  c #FFFF7B924DEC",
"(  c #FFFF7C094CCD",
")  c #FFFF7C874E14",
"_  c #FFFF7D114E4B",
"`  c #FFFF7C5C4ED7",
"'  c #FFFF7D674F24",
"]  c #FFFF7A394FFC",
"[  c #FFFF7C654FF7",
"{  c #FFFF7C1D515A",
"}  c #FFFF7EE6514A",
"|  c #FFFF7ED55254",
" . c #FFFF7E02532F",
".. c #FFFF7F2E534D",
"X. c #FFFF7E9A5468",
"o. c #FFFF7FC75558",
"O. c #FFFF7FE3568A",
"+. c #FFFF7FF65786",
"@. c #E55A99870DA3",
"#. c #E5F599C60EF0",
"$. c #E6969A28103B",
"%. c #E7A69A75115F",
"&. c #E6759A111197",
"*. c #E78B9A881231",
"=. c #E8B19AD6142F",
"-. c #E9189AEF14FA",
";. c #EA509C1D1CA6",
":. c #E96C9C221DB9",
">. c #E98B9C6F1F3B",
",. c #EB729C751DAA",
"<. c #DD309C00276B",
"1. c #DE169CB52A2B",
"2. c #EC239CFF2077",
"3. c #E9269D112299",
"4. c #ED209DA32350",
"5. c #EB589DCA2597",
"6. c #EA589DE82607",
"7. c #EA729EA629AA",
"8. c #EE139F362A7D",
"9. c #E9789F352D02",
"0. c #EE039FD52E12",
"q. c #EFD1A05F2F2E",
"w. c #EE34A03E2FD4",
"e. c #F061A0F0310A",
"r. c #EFE2A11E3263",
"t. c #EDFAA1673495",
"y. c #EF60A17D342E",
"u. c #ECFDA223376D",
"i. c #EA89A31F3BB0",
"p. c #EFA2A2B937F2",
"a. c #EF5AA3703A2F",
"s. c #EE95A36E3AF8",
"d. c #ED89A43B3DBE",
"f. c #EF68A4993E52",
"g. c #F122A0D63040",
"h. c #F129A0FF30DB",
"j. c #F2A8A2553511",
"k. c #F0BEA2A2370C",
"l. c #F33DA39F394A",
"z. c #F196A38439DD",
"x. c #F2CEA44C3C1C",
"c. c #FFFF80C542E1",
"v. c #FFFF847240C5",
"b. c #FFFF808B5470",
"n. c #FFFF80B554D5",
"m. c #FFFF81435539",
"M. c #FFFF80A25601",
"N. c #FFFF81265609",
"B. c #FFFF81AE5788",
"V. c #FFFF82DC574F",
"C. c #FFFF81405933",
"Z. c #FFFF822F5839",
"A. c #FFFF83B8588C",
"S. c #FFFF810059E6",
"D. c #FFFF816D5B97",
"F. c #FFFF83365A9A",
"G. c #FFFF82275B4B",
"H. c #FFFF83F95B18",
"J. c #FFFF84365986",
"K. c #FFFF84B35B1B",
"L. c #FFFF856B5BAB",
"P. c #FFFF85545BEF",
"I. c #FFFF84D35D89",
"U. c #FFFF854C5D3D",
"Y. c #FFFF875A5E32",
"T. c #FFFF866A5F3F",
"R. c #FFFF87405F60",
"E. c #EF83A584413E",
"W. c #EB18A65345AA",
"Q. c #EB6DA6974715",
"!. c #ED8CA68C45B9",
"~. c #EEE8A63143CC",
"^. c #F00FA6E84583",
"/. c #ED74A71B46FB",
"(. c #F016A87B49A4",
"). c #F1E7A6784393",
"_. c #EFEAAAFC509F",
"`. c #ECDBAB425237",
"'. c #EDEEABA6533A",
"]. c #EF80ABB053AE",
"[. c #EFB9ADBE57DB",
"{. c #ECCFAE545B1E",
"}. c #EDBFAF235B51",
"|. c #F101AC62539B",
" X c #EC46B0355F3E",
".X c #ECF5B0E75FA7",
"XX c #FFFF8898607D",
"oX c #FFFF881161C2",
"OX c #FFFF891161F6",
"+X c #FFFF88C663B9",
"@X c #FFFF8A196255",
"#X c #FFFF8A916372",
"$X c #FFFF8B0563EC",
"%X c #FFFF8BA364A4",
"&X c #FFFF8A36655B",
"*X c #FFFF8C056545",
"=X c #FFFF88206678",
"-X c #FFFF894A6690",
";X c #FFFF8A5A66AD",
":X c #FFFF8B5E663C",
">X c #FFFF8CD66750",
",X c #FFFF8A586882",
"<X c #FFFF8B58684F",
"1X c #FFFF8D506870",
"2X c #FFFF8EE969A5",
"3X c #FFFF8F6E6C58",
"4X c #FFFF90646C4C",
"5X c #FFFF91266D2E",
"6X c #FFFF91626E7F",
"7X c #FFFF92E46F67",
"8X c #FFFF92CA7174",
"9X c #FFFF9368715F",
"0X c #FFFF947E71E4",
"qX c #FFFF94417279",
"wX c #FFFF952672A2",
"eX c #FFFF959973D6",
"rX c #FFFF94EA74DF",
"tX c #FFFF96A774D1",
"yX c #FFFF962D75D7",
"uX c #FFFF95E076C8",
"iX c #FFFF98177702",
"pX c #FFFF9853786D",
"aX c #FFFF9A647A96",
"sX c #ED6BB42266FE",
"dX c #EDDAB4A267A8",
"fX c #F058B578693D",
"gX c #F004B7A96D7A",
"hX c #F05BB8106E15",
"jX c #F0EBB62669D3",
"kX c #FFFFE753DC82",
"lX c #FFFFEA37E052",
"zX c #FFFFEEA7E4AF",
"xX c #FFFFF004E5DE",
"cX c #FFFFF357EA0C",
"vX c #FFFFF50AEC00",
"bX c #FFFFF91FF003",
"nX c #FFFFFA6AF164",
"mX c #FFFFFB1AF26B",
"MX c #FFFFFCA0F3D6",
"NX c #FFFFFEE5F5EC",
"BX c #FFFFFEE7F702",
"VX c #FFFFFEFAF7B9",
"CX c #FFFFFFFFF8D8",
"ZX c #FFFFFFFFF9F4",
"AX c #FFFFFFFFFAF7",
"SX c #FFFFFFFFFC0B",
"DX c #FFFFFFFFFD0E",
"FX c #FFFFFFFFFDFA",
"GX c #FFFFFFFFFED0",
"HX c white",
"JX c None",
/* pixels */
"JXJXJXJXJXJXJXJXJXJXJXJXJXJXJXJXJXJXJXJXJXJXJXJXJXJXJXJXJXJXJXJXJXJXJXJXJXJXJXJXJXJXJXJXJXJXJXJXJXJXJXJXJXJXJXJXJXJXJXJXJXJXJXJX",
"JXJXJXJXJXJXJXJXJXJXJXJXJXJXJXJXJXJXJXJXJXJXJXJXJXJXJXJXJXJXJXJXJXJXJXJXJXJXJXJXJXJXJXJXJXJXJXJXJXJXJXJXJXJXJXJXJXJXJXJXJXJXJXJX",
"JXJXJXJXJXJXJXJXJXJXJXJXJXJXJXJXJXJXJXJXJXJXJXJXJXJXJXJXJXJXJXJXJXJXJXJXJXJXJXJXJXJXJXJXJXJXJXJXJXJXJXJXJXJXJXJXJXJXJXJXJXJXJXJX",
"JXJXJXJXJXJXJXJXJXJXJXJXJXJXJXJXJXJXJXJXJXJXJXJXJXJXJXJXJXJXJXJXJXJXJXJXJXJXJXJXJXJXJXJXJXJXJXJXJXJXJXJXJXJXJXJXJXJXJXJXJXJXJXJX",
"JXJXJXJXJXJXJXJXJXJXJXJXJXJXJXJXJXJXJXJXJXJXJXJXJXJXJXJXJXJXJXJXJXJXJXJXJXJXJXJXJXJXJXJXJXJXJXJXJXJXJXJXJXJXJXJXJXJXJXJXJXJXJXJX",
"JXJXJXJXJXJXJXJXJXJXJXJXJXJXJXJXJXJXJXJXJXJXJXJXJXJXJXJXJXJXJXJXJXJXJXJXJXJXJXJXJXJXJXJXJXJXJXJXJXJXJXJXJXJXJXJXJXJXJXJXJXJXJXJX",
"JXJXJXJXJXJXJXJXJXJXJXJXJXJXJXJXJXJXJXJXJXJXJXJXJXJXJXJXJXJXJXJXJXJXJXJXJXJXJXJXJXJXJXJXJXJXJXJXJXJXJXJXJXJXJXJXJXJXJXJXJXJXJXJX",
"JXJXJXJXJXJXJXJXJXJXJXJXJXJXJXJXJXJXJXJXJXJXJXJXJXJXJXJXJXJXJXJXJXJXJXJXJXJXJXJXJXJXJXJXJXJXJXJXJXJXJXJXJXJXJXJXJXJXJXJXJXJXJXJX",
"JXJXJXJXJXJXJXJXJXJXJXJXJXJXJXJXJXJXJXJXJXJXJXJXJXJXJXJXJXJXJXJXJXJXJXJXJXJXJXJXJXJXJXJXJXJXJXJXJXJXJXJXJXJXJXJXJXJXJXJXJXJXJXJX",
"JXJXJXJXJXJXJXJXJXJXJXJXJXJXJXJXJXJXJXJXJXJXJXJXJXJXJXJXJXJXJXJXJXJXJXJXJXJXJXJXJXJXJXJXJXJXJXJXJXJXJXJXJXJXJXJXJXJXJXJXJXJXJXJX",
"JXJXJXJXJXJXJXJXJXJXJXJXJXJXJXJXJXJXJXJXJXJXJXJXJXJXJXJXJXJXJXJXJXJXJXJXJXJXJXJXJXJXJXJXJXJXJXJXJXJXJXJXJXJXJXJXJXJXJXJXJXJXJXJX",
"JXJXJXJXJXJXJXJXJXJXJXJXJXJXJXJXJXJXJXJXJXJXJXJXJXJXJXJXJXJXJXJXJXJXJXJXJXJXJXJXJXJXJXJXJXJXJXJXJXJXJXJXJXJXJXJXJXJXJXJXJXJXJXJX",
"JXJXJXJXJXJXJXJXJXJXJXJXJXJXJXJXJXJXJXJXJXJXJXJXJXJXJXJXJXJXJXJXJXJXJXJXJXJXJXJXJXJXJXJXJXJXJXJXJXJXJXJXJXJXJXJXJXJXJXJXJXJXJXJX",
"JXJXJXJXJXJXJXJXJXJXJXJXJXJXJXJXJXJXJXJXJXJXJXJXJXJXJXJXJXJXJXJXJXJXJXJXJXJXJXJXJXJXJXJXJXJXJXJXJXJXJXJXJXJXJXJXJXJXJXJXJXJXJXJX",
"JXJXJXJXJXJXJXJXJXJXJXJXJXJXJXJXJXJXJXJXJXJXsXgXHXHXHXHXhXdXJXJXJXJXJXJXJXJXJXJXJXJXJXJXJXJXJXJXJXJXJXJXJXJXJXJXJXJXJXJXJXJXJXJX",
"JXJXJXJXJXJXJXJXJXJXJXJXJXJXJXJXJXJXJXJX XfXvXmXGXHXHXSXZXBXjX.XJXJXJXJXJXJXJXJXJXJXJXJXJXJXJXJXJXJXJXJXJXJXJXJXJXJXJXJXJXJXJXJX",
"JXJXJXJXJXJXJXJXJXJXJXJXJXJXJXJXJXJXJX{.lXzXMXHXHXHXHXHXHXAXbXkX}.JXJXJXJXJXJXJXJXJXJXJXJXJXJXJXJXJXJXJXJXJXJXJXJXJXJXJXJXJXJXJX",
"JXJXJXJXJXJXJXJXJXJXJXJXJXJXJXJXJXJXJX=XcXHXHXHXHXHXHXHXHXHXNXnX-X`.JXJXJXJXJXJXJXJXJXJXJXJXJXJXJXJXJXJXJXJXJXJXJXJXJXJXJXJXJXJX",
"JXJXJXJXJXJXJXJXJXJXJXJXJXJXJXJXJXJX].,XxXFXHXHXHXHXHXHXHXHXHXNX<X|.JXJXJXJXJXJXJXJXJXJXJXJXJXJXJXJXJXJXJXJXJXJXJXJXJXJXJXJXJXJX",
"JXJXJXJXJXJXJXJXJXJXJXJXJXJXJXJXJXQ.D.<XuXAXHXHXHXHXHXHXHXHXHXyX<XG./.JXJXJXJXJXJXJXJXJXJXJXJXJXJXJXJXJXJXJXJXJXJXJXJXJXJXJXJXJX",
"JXJXJXJXJXJXJXJXJXJXJXJXJXJXJXJXJX!.S.;XrXHXHXHXHXHXHXHXHXHXHXqX&XC.^.JXJXJXJXJXJXJXJXJXJXJXJXJXJXJXJXJXJXJXJXJXJXJXJXJXJXJXJXJX",
"JXJXJXJXJXJXJXJXJXJXJXJXJXJXJXJXJX~.+.+X8XSXHXHXHXHXHXHXHXHXaX6XoXO.).JXJXJXJXJXJXJXJXJXJXJXJXJXJXJXJXJXJXJXJXJXJXJXJXJXJXJXJXJX",
"JXJXJXJXJXJXJXJXJXJXJXJXJXJXJXJXJXE.X.T.3XpXHXHXHXHXHXHXHXHXeX1XU. .Y JXJXJXJXJXJXJXJXJXJXJXJXJXJXJXJXJXJXJXJXJXJXJXJXJXJXJXJXJX",
"JXJXJXJXJXJXJXJXJXJXJXJXJXJXJXJXJXf.{ F.:X9XHXHXHXHXHXHXHXiX4XOXZ.[ K JXJXJXJXJXJXJXJXJXJXJXJXJXJXJXJXJXJXJXJXJXJXJXJXJXJXJXJXJX",
"JXJXJXJXJXJXJXJXJXJXJXJXJXJXJXJXJXs.W o.T.1X0XHXHXHXHXHXtX5X#XK...Q x.JXJXJXJXJXJXJXJXJXJXJXJXJXJXJXJXJXJXJXJXJXJXJXJXJXJXJXJXJX",
"JXJXJXJXJXJXJXJXJXJXJXJXJXJXJXJXJXu.K [ B.R.>X5X0XHXwX7X2X#XL.n.` L z.JXJXJXJXJXJXJXJXJXJXJXJXJXJXJXJXJXJXJXJXJXJXJXJXJXJXJXJXJX",
"JXJXJXJXJXJXJXJXJXJXJXJXJXJXJXJXJXJXC I [ N.P.XX$X*X%X@XY.J.b.' T F p.JXJXJXJXq 0 <.JXJXJXJXJXJXJXJXJXJXJXJXJXJXJXJXJXJXJXJXJXJX",
"JXJXJXJXJXJXJXJXJXJXJXJXJXJXJXJXJXJXt.C L / | m.V.A.A.V.b.} ) U G l.JXJXJXJXJXu w 1.JXJXJXJXJXJXJXJXJXJXJXJXJXJXJXJXJXJXJXJXJXJX",
"JXJXJXJXJXJXJXJXJXJXJXJXJXJXJXJXJXJXJXy.B G U ! _ ' ' _ ( E P G c.JXJXJXJXJXJXJXJXJXJXJXJXJXJXJXJXJXJXJXJXJXJXJXJXJXJXJXJXJXJXJX",
"JXJXJXJXJXJXJXJXJXJXJXJXJXJXJXJXJXJXJXJXr.c V A D H H H D S Z v.k.JXJXJXJXJXJXJXJXJXJXJXJXJXJXJXJXJXJXJXJXJXJXJXJXJXJXJXJXJXJXJX",
"JXJXJXJXJXJXJXJXJXJXJXJXJXJXJXJXJXJXJXJXJXw.g l z b b b b c j.JXJXJXJXJXJXJXJXJXJXJXJXJXJXJXJXJXJXJXJXJXJXJXJXJXJXJXJXJXJXJXJXJX",
"JXJXJXJXJXJXJXJXJXJXJXJXJXJXJXJXJXJXJXJXJXJXJX0.q.g.g.h.e.JXJXJXJXJXJXJXJXJXJXJXJXJXJXJXJXJXJXJXJXJXJXJXJXJXJXJXJXJXJXJXJXJXJXJX",
"JXJXJXJXJXJXJXJXJXJXJXJXJXJXJXJXJXJXJXJXJXJXJXJXJXJXJXJXJXJXJXJXJXJXJXJX'.[.HXHX'.JXJXJXJXJXJXJXJXJXJXJXJXJXJXJXJXJXJXJXJXJXJXJX",
"JXJXJXJXJXJXJXJXJXJXJXJXJXJXJXJXJXJXJXJXJXJXJXJXJXJXJXJXJXJXJXJXJXJXJX_.CXZXAXZXCXVXW.JXJXJXJXJXJXJXJXJXJXJXJXJXJXJXJXJXJXJXJXJX",
"JXJXJXJXJXJXJXJXJXJXJXJXJXJXJXJXJXJXJXJXJXJXJXJXJXJXJXJXJXJXJXJXJXJX(.BXZXAXAXAXCXBX] i.JXJXJXJXJXJXJXJXJXJXJXJXJXJXJXJXJXJXJXJX",
"JXJXJXJXJXJXJXJXJXJXJXJXJXJXJXJXJXJXJXJXJXJXJXJXJXJXJXJXJXJXJXJXJXd.{ BXCXZXFXDXI.O.^ N JXJXJXJXJXJXJXJXJXJXJXJXJXJXJXJXJXJXJXJX",
"JXJXJXJXJXJXJXJXJXJXJXJXJXJXJXJXJXJXJXJXJXJXJXJXJXJXJXJXJXJXJXJXJXa.~ X.F.U.U.H.M.[ J x 9.JXJXJXJXJXJXJXJXJXJXJXJXJXJXJXJXJXJXJX",
"JXJXJXJXJXJXJXJXJXJXJXJXJXJXJXJXJXJXJXJXJXJXJXJXJXJXJXJXJXJXJXJXJXx J / | b.b.| ) P m f 7.JXJXJXJXJXJXJXJXJXJXJXJXJXJXJXJXJXJXJX",
"JXJXJXJXJXJXJXJXJXJXJXJXJXJXJXJXJXJXJXJXJXJXJXJXJXJXJXJXJXJXJXJXJXd b S P R R P D n h y 6.JXJXJXJXJXJXJXJXJXJXJXJXJXJXJXJXJXJXJX",
"JXJXJXJXJXJXJXJXJXJXJXJXJXJXJXJXJXJXJXJXJXJXJXJXJXJXJXJXJXJXJXJXJX8.a j v M M v k s y 6 3.JXJXJXJXJXJXJXJXJXJXJXJXJXJXJXJXJXJXJX",
"JXJXJXJXJXJXJXJXJXJXJXJXJXJXJXJXJXJXJXJXJXJXJXJXJXJXJXJXJXJXJXJXJX5.e y p s s s i t 6 2 JXJXJXJXJXJXJXJXJXJXJXJXJXJXJXJXJXJXJXJX",
"JXJXJXJXJXJXJXJXJXJXJXJXJXJXJXJXJXJXJXJXJXJXJXJXJXJXJXJXJXJXJXJXJXJX4.5 8 9 r 9 7 4 1 >.JXJXJXJXJXJXJXJXJXJXJXJXJXJXJXJXJXJXJXJX",
"JXJXJXJXJXJXJXJXJXJXJXJXJXJXJXJXJXJXJXJXJXJXJXJXJXJXJXJXJXJXJXJXJXJXJX2.1 3 3 3 < , :.JXJXJXJXJXJXJXJXJXJXJXJXJXJXJXJXJXJXJXJXJX",
"JXJXJXJXJXJXJXJXJXJXJXJXJXJXJXJXJXJXJXJXJXJXJXJXJXJXJXJXJXJXJXJXJXJXJXJXJX,.> : ;.JXJXJXJXJXJXJXJXJXJXJXJXJXJXJXJXJXJXJXJXJXJXJX",
"JXJXJXJXJXJXJXJXJXJXJXJXJXJXJXJXJXJXJXJXJXJXJXJXJXJXJXJXJXJXJXJXJXJXJXJXJXJXJXJXJXJXJXJXJXJXJXJXJXJXJXJXJXJXJXJXJXJXJXJXJXJXJXJX",
"JXJXJXJXJXJXJXJXJXJXJXJXJXJXJXJXJXJXJXJXJXJXJXJXJXJXJXJXJXJXJXJXJXJXJXJXJXJXJXJXJXJXJXJXJXJXJXJXJXJXJXJXJXJXJXJXJXJXJXJXJXJXJXJX",
"JXJXJXJXJXJXJXJXJXJXJXJXJXJXJXJXJXJXJXJXJXJXJXJXJXO @ @ @ -.JXJXJXJXJXJXJXJXJXJXJXJXJXJXJXJXJXJXJXJXJXJXJXJXJXJXJXJXJXJXJXJXJXJX",
"JXJXJXJXJXJXJXJXJXJXJXJXJXJXJXJXJXJXJXJXJXJXJX&.O & * * & & =.JXJXJXJXJXJXJXJXJXJXJXJXJXJXJXJXJXJXJXJXJXJXJXJXJXJXJXJXJXJXJXJXJX",
"JXJXJXJXJXJXJXJXJXJXJXJXJXJXJXJXJXJXJXJXJXJXJXX $ * - - - * + JXJXJXJXJXJXJXJXJXJXJXJXJXJXJXJXJXJXJXJXJXJXJXJXJXJXJXJXJXJXJXJXJX",
"JXJXJXJXJXJXJXJXJXJXJXJXJXJXJXJXJXJXJXJXJXJXJXX $ = ; ; - * + *.JXJXJXJXJXJXJXJXJXJXJXJXJXJXJXJXJXJXJXJXJXJXJXJXJXJXJXJXJXJXJXJX",
"JXJXJXJXJXJXJXJXJXJXJXJXJXJXJXJXJXJXJXJXJXJX#.X $ = ; ; - % + %.JXJXJXJXJXJXJXJXJXJXJXJXJXJXJXJXJXJXJXJXJXJXJXJXJXJXJXJXJXJXJXJX",
"JXJXJXJXJXJXJXJXJXJXJXJXJXJXJXJXJXJXJXJXJXJXJXX $ = - - = % o $.JXJXJXJXJXJXJXJXJXJXJXJXJXJXJXJXJXJXJXJXJXJXJXJXJXJXJXJXJXJXJXJX",
"JXJXJXJXJXJXJXJXJXJXJXJXJXJXJXJXJXJXJXJXJXJXJX  o $ % % $ o . JXJXJXJXJXJXJXJXJXJXJXJXJXJXJXJXJXJXJXJXJXJXJXJXJXJXJXJXJXJXJXJXJX",
"JXJXJXJXJXJXJXJXJXJXJXJXJXJXJXJXJXJXJXJXJXJXJX@.. o # # o . #.JXJXJXJXJXJXJXJXJXJXJXJXJXJXJXJXJXJXJXJXJXJXJXJXJXJXJXJXJXJXJXJXJX",
"JXJXJXJXJXJXJXJXJXJXJXJXJXJXJXJXJXJXJXJXJXJXJXJXJX  . .   JXJXJXJXJXJXJXJXJXJXJXJXJXJXJXJXJXJXJXJXJXJXJXJXJXJXJXJXJXJXJXJXJXJXJX",
"JXJXJXJXJXJXJXJXJXJXJXJXJXJXJXJXJXJXJXJXJXJXJXJXJXJXJXJXJXJXJXJXJXJXJXJXJXJXJXJXJXJXJXJXJXJXJXJXJXJXJXJXJXJXJXJXJXJXJXJXJXJXJXJX",
"JXJXJXJXJXJXJXJXJXJXJXJXJXJXJXJXJXJXJXJXJXJXJXJXJXJXJXJXJXJXJXJXJXJXJXJXJXJXJXJXJXJXJXJXJXJXJXJXJXJXJXJXJXJXJXJXJXJXJXJXJXJXJXJX",
"JXJXJXJXJXJXJXJXJXJXJXJXJXJXJXJXJXJXJXJXJXJXJXJXJXJXJXJXJXJXJXJXJXJXJXJXJXJXJXJXJXJXJXJXJXJXJXJXJXJXJXJXJXJXJXJXJXJXJXJXJXJXJXJX",
"JXJXJXJXJXJXJXJXJXJXJXJXJXJXJXJXJXJXJXJXJXJXJXJXJXJXJXJXJXJXJXJXJXJXJXJXJXJXJXJXJXJXJXJXJXJXJXJXJXJXJXJXJXJXJXJXJXJXJXJXJXJXJXJX",
"JXJXJXJXJXJXJXJXJXJXJXJXJXJXJXJXJXJXJXJXJXJXJXJXJXJXJXJXJXJXJXJXJXJXJXJXJXJXJXJXJXJXJXJXJXJXJXJXJXJXJXJXJXJXJXJXJXJXJXJXJXJXJXJX",
"JXJXJXJXJXJXJXJXJXJXJXJXJXJXJXJXJXJXJXJXJXJXJXJXJXJXJXJXJXJXJXJXJXJXJXJXJXJXJXJXJXJXJXJXJXJXJXJXJXJXJXJXJXJXJXJXJXJXJXJXJXJXJXJX",
"JXJXJXJXJXJXJXJXJXJXJXJXJXJXJXJXJXJXJXJXJXJXJXJXJXJXJXJXJXJXJXJXJXJXJXJXJXJXJXJXJXJXJXJXJXJXJXJXJXJXJXJXJXJXJXJXJXJXJXJXJXJXJXJX",
"JXJXJXJXJXJXJXJXJXJXJXJXJXJXJXJXJXJXJXJXJXJXJXJXJXJXJXJXJXJXJXJXJXJXJXJXJXJXJXJXJXJXJXJXJXJXJXJXJXJXJXJXJXJXJXJXJXJXJXJXJXJXJXJX",
"JXJXJXJXJXJXJXJXJXJXJXJXJXJXJXJXJXJXJXJXJXJXJXJXJXJXJXJXJXJXJXJXJXJXJXJXJXJXJXJXJXJXJXJXJXJXJXJXJXJXJXJXJXJXJXJXJXJXJXJXJXJXJXJX"
};
