/* XPM */
static char *result[] = {
/* columns rows colors chars-per-pixel */
"64 64 6 1 ",
"  c #4A7833",
". c #512B67",
"X c #B861E8",
"o c #D691FC",
"O c #E3B5FD",
"+ c #ECDCF5",
/* pixels */
"                                                                ",
"                                                                ",
"                                                                ",
"                                                                ",
"                                                                ",
"                                                                ",
"                                                                ",
"                                                                ",
"                                                                ",
"                                                                ",
"                                                                ",
"                                                                ",
"                                                                ",
"                                                                ",
"                            OOOOOOOOO                           ",
"                         OOOooOOOOOooOOO                        ",
"                       OOoooOO+++++OOoooOO                      ",
"                      OooooOO+++++++OOooooO                     ",
"                     OooooOOO+++++++OOOooooO                    ",
"                    OoooooOOO+++++++OOOoooooO                   ",
"                   OooOooooOOO+++++OOOooooOooO                  ",
"                   OoOoooXXoOOOOOOOOOoXXoooOoO                  ",
"                  OoOOooXXXXXoooooooXXXXXooOOoO                 ",
"                  OoOooXXXXXXXXXXXXXXXXXXXooOoO                 ",
"                  OoOooXXXXXXXXXXXXXXXXXXXooOoO                 ",
"                 OoOOoXXXXXXXXXXXXXXXXXXXXXoOOoO                ",
"                 OoOOoXXXXXXXXXXXXXXXXXXXXXoOOoO                ",
"                 OoOOoXXXXXXXXXXXXXXXXXXXXXoOOoO                ",
"                 Oo+OoXXXXX..XXXXXXX..XXXXXoO+oO                ",
"                  O++ooXXXX..XXXXXXX..XXXXoo++O                 ",
"                  Oo+OoXXXX..XXXXXXX..XXXXoO+oO                 ",
"                   Oo+OoXXXXXXXXXXXXXXXXXoO+oO                  ",
"                   XOo+OooXXXXXXXXXXXXXooO+oOX                  ",
"                   X OO++OOoooooooooooOO++OO X                  ",
"                   o X OO+++++++++++++++OO X o                  ",
"                   o X X  OOOOOOOOOOOOO  X X o                  ",
"                   o o X   X X     X X   X o o                  ",
"                  o  o o   X X     X X   o o  o                 ",
"                  o  o o  o  o     o  o  o o  o                 ",
"                 O   o O  o   o   o   o  O o   O                ",
"                 O  o  O  O   o   o   O  O  o  O                ",
"                O   O  O  O   o   o   O  O  O   O               ",
"                o   O   O  O  o   o  O  O   O   o               ",
"                 o  O   o  O  o   o  O  o   O  o                ",
"                    O    o O  O   O  O o    O                   ",
"                     o   o o  O   O  o o   o                    ",
"                     o    o   O   O   o    o                    ",
"                              O   O                             ",
"                               O O                              ",
"                               O O                              ",
"                               o o                              ",
"                                o                               ",
"                                                                ",
"                                                                ",
"                                                                ",
"                                                                ",
"                                                                ",
"                                                                ",
"                                                                ",
"                                                                ",
"                                                                ",
"                                                                ",
"                                                                ",
"                                                                "
};
