/* XPM */
static char *result[] = {
/* columns rows colors chars-per-pixel */
"64 64 64 1 ",
"  c #3C6417",
". c #39661B",
"X c #3F6B1F",
"o c #3F6B22",
"O c #446B1F",
"+ c #416722",
"@ c #446D23",
"# c #457126",
"$ c #497326",
"% c #457229",
"& c #4A7529",
"* c #4D7A2C",
"= c #517C2C",
"- c #527734",
"; c #4F802D",
": c #54812D",
"> c #58852F",
", c #5F8D2F",
"< c #4F8130",
"1 c #568331",
"2 c #5A8532",
"3 c #5D8A33",
"4 c #5C8639",
"5 c #5F893C",
"6 c #608634",
"7 c #628F35",
"8 c #628E39",
"9 c #649136",
"0 c #689337",
"q c #64923A",
"w c #6A953B",
"e c #6D9A3C",
"r c #739C3E",
"t c #72A33F",
"y c #78A23F",
"u c #598040",
"i c #668D42",
"p c #6A9743",
"a c #6D9C42",
"s c #6F9A4A",
"d c #739D43",
"f c #739E49",
"g c #76A245",
"h c #7AA444",
"j c #7EA947",
"k c #75A24A",
"l c #7AA64B",
"z c #7EAA4C",
"x c #78A550",
"c c #7EAA52",
"v c #80A547",
"b c #82AD46",
"n c #80A44C",
"m c #81AC4D",
"M c #85B14D",
"N c #82AD52",
"B c #85B254",
"V c #8AB554",
"C c #8EB957",
"Z c #86B258",
"A c #8AB658",
"S c #8DB958",
"D c #92BB57",
"F c None",
/* pixels */
"FFFFFFFFFFFFFFFFFFFFFFFFFFFFFFFFFFFFFFFFFFFFFFFFFFFFFFFFFFFFFFFF",
"FFFFFFFFFFFFFFFFFFFFFFFFFFFFFFFFFFFFFFFFFFFFFFFFFFFFFFFFFFFFFFFF",
"FFFFFFFFFFFFFFFFFFFFFFFFFFFFFFFFFFFFFFFFFFFFFFFFFFFFFFFFFFFFFFFF",
"FFFFFFFFFFFFFFFFFFFFFFFFFFFFFFFFFFFFFFFFFFFFFFFFFFFFFFFFFFFFFFFF",
"FFFFFFFFFFFFFF-@##FFFFFFFFFFFFFFFFFFFFFFFFFFFF-@#@FFFFFFFFFFFFFF",
"FFFFFFFFFFu+O$**&*&X@FFFFFFFFFFFFFFFFFFFFFu+@&&*&*&o@FFFFFFFFFFF",
"FFFFFFFFFo11up8q151*&@.FFFFFFFFFFFFFFFFFFo115pqq191*&@.FFFFFFFFF",
"FFFFFFF*<8psfkdeq32$%@#@&FFFFFFFFFFFFFF*<5psffdeq31#%@#@&FFFFFFF",
"FFFFF>91qjkzBcNlap1$%@@@@ FFFFFFFFFFF>02qblcNNmlap2$@@@#@.FFFFFF",
"FFFF0rhqpMBVBNBzkq1*%$&&##O+FFFFFFFF0tyqqMNVBNBzf81=%$$&#@O@FFFF",
"FFF9wegdgzkBABlgk413==21#@#O+FFFFFF9weadgckNABhkf422==>1%@#O+FFF",
"FFFFtakckpqlBmhzki534793*@&&$FFFFFFFrafckaqkBNhjki847873*@#&$FFF",
"FFFFekccZcjMmhwlclsw3309*##**FFFFFFFekcZAzlMBgelNlfq3309*##**FFF",
"FFFellMZZcVAAmhgBBlw6*=3#;%#FFFFFFFellMBAcBCVmhgZNzw6$=7%;#$FFFF",
"FFFgfkxMCSSSCVVVAVmh7:$=::*&FFFFFFFydkxMSSSSCVVVCBzg7:$=:;:%FFFF",
"FFFF5gerMBCBACDCBVlrew3:22=&FFFFFFFF8sadMBSZVCDCVVkgee6:22=&FFFF",
"FFFFejgdddkNNNNzzmjete4**30FFFFFFFFFebgddrkNNmNclMjere3**39FFFFF",
"FFFFFhmbr9iwhVndgvrd03*&=30FFFFFFFFFFgbbd0iwhVndkjrd03&*=30FFFFF",
"FFFFFFhlnVNdrbvd8q0w2;&=:2FFFFFFFFFFFFhlnVNdrbvdqq9q2;$:=1FFFFFF",
"FFFFFFFdlmhrhrry3339,2>111FFFFFFFFFFFFFdljlehyrt3,3q3>>121FFFFFF",
"FFFFFFFFgjlpeeee0er799q>1FFFFFFFFFFFFFFFkbkpeerewer799q>1FFFFFFF",
"FFFFFFFFFFgeweww9ee939FFFFFFFFFFFFFFFFFFFFdrwe009ee939FFFFFFFFFF",
"FFFFFFFFFFFw0e939we99FFFFFFFFFFFFFFFFFFFFFFw0e97qew9qFFFFFFFFFFF",
"FFFFFFFFFFFF0wFFqFFFFFFFFFFFFFFFFFFFFFFFFFFF9wFF9FFFFFFFFFFFFFFF",
"FFFFFFFFFFFFFFFFFFFFFFFFFFFFFFFFFFFFFFFFFFFFFFFFFFFFFFFFFFFFFFFF",
"FFFFFFFFFFFFFFFFFFFFFFFFFFFFFFFFFFFFFFFFFFFFFFFFFFFFFFFFFFFFFFFF",
"FFFFFFFFFFFFFFFFFFFFFFFFFFFFFFFFFFFFFFFFFFFFFFFFFFFFFFFFFFFFFFFF",
"FFFFFFFFFFFFFFFFFFFFFFFFFFFFFFFFFFFFFFFFFFFFFFFFFFFFFFFFFFFFFFFF",
"FFFFFFFFFFFFFFFFFFFFFFFFFFFFFFFFFFFFFFFFFFFFFFFFFFFFFFFFFFFFFFFF",
"FFFFFFFFFFFFFFFFFFFFFFFFFFFFFFFFFFFFFFFFFFFFFFFFFFFFFFFFFFFFFFFF",
"FFFFFFFFFFFFFFFFFFFFFFFFFFFFFFFFFFFFFFFFFFFFFFFFFFFFFFFFFFFFFFFF",
"FFFFFFFFFFFFFFFFFFFFFFFFFFFFFFFFFFFFFFFFFFFFFFFFFFFFFFFFFFFFFFFF",
"FFFFFFFFFFFFFFFFFFFFFFFFFFFFFFFFFFFFFFFFFFFFFFFFFFFFFFFFFFFFFFFF",
"FFFFFFFFFFFFFFFFFFFFFFFFFFFFFFFFFFFFFFFFFFFFFFFFFFFFFFFFFFFFFFFF",
"FFFFFFFFFFFFFFFFFFFFFFFFFFFFFFFFFFFFFFFFFFFFFFFFFFFFFFFFFFFFFFFF",
"FFFFFFFFFFFFFFFFFFFFFFFFFFFFFFFFFFFFFFFFFFFFFFFFFFFFFFFFFFFFFFFF",
"FFFFFFFFFFFFFF-@##FFFFFFFFFFFFFFFFFFFFFFFFFFFF-@#@FFFFFFFFFFFFFF",
"FFFFFFFFFFu++%**&*&X@FFFFFFFFFFFFFFFFFFFFFu++&&*&*&X@FFFFFFFFFFF",
"FFFFFFFFFo125pqq191*&@.FFFFFFFFFFFFFFFFFFo118pq91q1*&@.FFFFFFFFF",
"FFFFFFF*;5psskdeq32#%@@#&FFFFFFFFFFFFFF=<8pssfgeq31#%@#@&FFFFFFF",
"FFFFF>01qzzzcNmlaq5&@@@@@.FFFFFFFFFFF201qmlzNNmlap2$@@+#@.FFFFFF",
"FFFFwryqqMBVVBNzkq==@&&*#@O@FFFFFFFF0ryqqMMABNNck81=%$&&#@O@FFFF",
"FFF9eeddkzgBVBkgf412*121#o#@+FFFFFF9wesdgckBABkkf422=1>1%@#@+FFF",
"FFFFrakzkpqkBcjzxi843792*o&&$FFFFFFFtagclpqgBMhjfi743703*@#$$FFF",
"FFFFwkcZAzzBmgexcldq3400*o&**FFFFFFFekccVczMBgejNxdw33w9*##**FFF",
"FFFejlNZZNVVVmygZBlw3&=6#;$#FFFFFFFejlMZZcBVBmggZNkp6&=6%<#$FFFF",
"FFFgsklzVSSSCVVCZZmh9:&=::=&FFFFFFFddklMCSSSCCVVCBmg7:$=:;=&FFFF",
"FFFF8drdMBSBCCDSVVjdw07:22=&FFFFFFFFisarMBSZVCDCVBjge07:2>=&FFFF",
"FFFFajgrddlNNNmzzMjere3**39FFFFFFFFFebgddrkNNmNclMgtre2**39FFFFF",
"FFFFFhmbr9iwhVnfgjar03&&=50FFFFFFFFFFgbbd0iwhVndkjrdw3&*=30FFFFF",
"FFFFFFhjmBNdrbvd500q2:$:=>FFFFFFFFFFFFhlnVNdrbvd7w8q2;&:=2FFFFFF",
"FFFFFFFalmvwhrrg33,932>121FFFFFFFFFFFFFdljlehyrt33,q3>:>21FFFFFF",
"FFFFFFFFkjkwewrewer799q2>FFFFFFFFFFFFFFFkbkpeerewer799q>1FFFFFFF",
"FFFFFFFFFFgrwrw07ee939FFFFFFFFFFFFFFFFFFFFdrwe009ee939FFFFFFFFFF",
"FFFFFFFFFFFw9w93qee9qFFFFFFFFFFFFFFFFFFFFFFw0e97qew9qFFFFFFFFFFF",
"FFFFFFFFFFFF0eFFqFFFFFFFFFFFFFFFFFFFFFFFFFFF9wFF9FFFFFFFFFFFFFFF",
"FFFFFFFFFFFFFFFFFFFFFFFFFFFFFFFFFFFFFFFFFFFFFFFFFFFFFFFFFFFFFFFF",
"FFFFFFFFFFFFFFFFFFFFFFFFFFFFFFFFFFFFFFFFFFFFFFFFFFFFFFFFFFFFFFFF",
"FFFFFFFFFFFFFFFFFFFFFFFFFFFFFFFFFFFFFFFFFFFFFFFFFFFFFFFFFFFFFFFF",
"FFFFFFFFFFFFFFFFFFFFFFFFFFFFFFFFFFFFFFFFFFFFFFFFFFFFFFFFFFFFFFFF",
"FFFFFFFFFFFFFFFFFFFFFFFFFFFFFFFFFFFFFFFFFFFFFFFFFFFFFFFFFFFFFFFF",
"FFFFFFFFFFFFFFFFFFFFFFFFFFFFFFFFFFFFFFFFFFFFFFFFFFFFFFFFFFFFFFFF",
"FFFFFFFFFFFFFFFFFFFFFFFFFFFFFFFFFFFFFFFFFFFFFFFFFFFFFFFFFFFFFFFF",
"FFFFFFFFFFFFFFFFFFFFFFFFFFFFFFFFFFFFFFFFFFFFFFFFFFFFFFFFFFFFFFFF"
};
